<?xml version="1.0" standalone="no"?>
<!DOCTYPE svg PUBLIC "-//W3C//DTD SVG 20010904//EN"
 "http://www.w3.org/TR/2001/REC-SVG-20010904/DTD/svg10.dtd">
<svg version="1.0" xmlns="http://www.w3.org/2000/svg"
 width="700.000000pt" height="700.000000pt" viewBox="0 0 700.000000 700.000000"
 preserveAspectRatio="xMidYMid meet">
<metadata>
Created by potrace 1.11, written by Peter Selinger 2001-2013
</metadata>
<g transform="translate(0.000000,700.000000) scale(0.100000,-0.100000)"
fill="#000000" stroke="none">
<path d="M577 6934 c-1 -1 -20 -4 -42 -7 -188 -26 -366 -184 -427 -378 l-23
-74 0 -2975 c0 -3084 -1 -2990 37 -3080 38 -89 62 -124 135 -196 57 -56 137
-102 223 -130 52 -17 214 -18 3015 -19 2460 -1 2970 1 3020 12 117 26 227 94
301 185 19 24 38 48 43 54 18 23 43 77 63 142 l22 67 0 2945 c0 1620 -3 2964
-7 2987 -19 123 -64 215 -149 303 -73 76 -185 140 -248 142 -3 0 -14 5 -25 11
-15 8 -806 12 -2978 12 -1627 0 -2959 0 -2960 -1z"/>
</g>
</svg>
