<?xml version="1.0" encoding="UTF-8"?>
<svg width="158px" height="41px" viewBox="0 0 158 41" version="1.1" xmlns="http://www.w3.org/2000/svg" xmlns:xlink="http://www.w3.org/1999/xlink">
    <title>Group</title>
    <g id="Logo" stroke="none" stroke-width="1" fill="none" fill-rule="evenodd">
        <g id="A4-Copy-9" transform="translate(-118.000000, -77.000000)">
            <g id="Group" transform="translate(118.493523, 77.500000)">
                <path d="M47.1549149,25.4726562 L47.1549149,19.9648438 C47.1549149,18.5429688 47.3346024,17.546875 47.6939774,16.9765625 C48.0611649,16.3984375 48.6822586,16.109375 49.5572586,16.109375 C50.3619461,16.109375 50.9166336,16.328125 51.2213211,16.765625 C51.5338211,17.1953125 51.6900711,17.9726562 51.6900711,19.0976562 L51.6900711,19.0976562 L51.6900711,25.4726562 L54.3385086,25.4726562 L54.3385086,18.4765625 C54.3385086,16.8671875 54.0181961,15.7070312 53.3775711,14.9960938 C52.6353836,14.1601562 51.6002274,13.7421875 50.2721024,13.7421875 C49.1158524,13.7421875 48.0767899,14.1992188 47.1549149,15.1132812 L47.1549149,15.1132812 L47.1549149,14.0585938 L44.5064774,14.0585938 L44.5064774,25.4726562 L47.1549149,25.4726562 Z M63.1627274,25.8007812 C64.8892899,25.8007812 66.3463211,25.2265625 67.5338211,24.078125 C68.7135086,22.921875 69.3033524,21.4882812 69.3033524,19.7773438 C69.3033524,18.0820312 68.7174149,16.6523438 67.5455399,15.4882812 C66.3580399,14.3242188 64.9127274,13.7421875 63.2096024,13.7421875 C61.5142899,13.7421875 60.0767899,14.3203125 58.8971024,15.4765625 C57.7174149,16.6328125 57.1275711,18.0351562 57.1275711,19.6835938 C57.1275711,21.4335938 57.7056961,22.8867188 58.8619461,24.0429688 C60.0181961,25.2148438 61.4517899,25.8007812 63.1627274,25.8007812 Z M63.2096024,23.4453125 C62.1861649,23.4453125 61.3619461,23.109375 60.7369461,22.4375 C60.1275711,21.7734375 59.8228836,20.8710938 59.8228836,19.7304688 C59.8228836,18.6679688 60.1353836,17.8007812 60.7603836,17.1289062 C61.3853836,16.4570312 62.2017899,16.1210938 63.2096024,16.1210938 C64.2330399,16.1210938 65.0572586,16.4570312 65.6822586,17.1289062 C66.2994461,17.7929688 66.6080399,18.6796875 66.6080399,19.7890625 C66.6080399,20.8984375 66.2994461,21.7851562 65.6822586,22.4492188 C65.0650711,23.1132812 64.2408524,23.4453125 63.2096024,23.4453125 Z M74.7291336,25.4726562 L74.7291336,19.578125 C74.7291336,18.3828125 74.8990555,17.5078125 75.2388992,16.953125 C75.578743,16.3984375 76.1197586,16.1210938 76.8619461,16.1210938 C78.0338211,16.1210938 78.6197586,17.1367188 78.6197586,19.1679688 L78.6197586,19.1679688 L78.6197586,25.4726562 L81.2681961,25.4726562 L81.2681961,19.578125 C81.2681961,18.3671875 81.4342117,17.4882812 81.766243,16.9414062 C82.0982742,16.3945312 82.6275711,16.1210938 83.3541336,16.1210938 C83.9791336,16.1210938 84.4283524,16.3515625 84.7017899,16.8125 C84.9674149,17.265625 85.1002274,18.0390625 85.1002274,19.1328125 L85.1002274,19.1328125 L85.1002274,25.4726562 L87.7486649,25.4726562 L87.7486649,18.4179688 C87.7486649,15.3007812 86.4635086,13.7421875 83.8931961,13.7421875 C82.4791336,13.7421875 81.3580399,14.3046875 80.5299149,15.4296875 C79.7799149,14.3046875 78.7603836,13.7421875 77.4713211,13.7421875 C76.8931961,13.7421875 76.4127274,13.8398438 76.0299149,14.0351562 C75.6705399,14.2226562 75.2369461,14.5820312 74.7291336,15.1132812 L74.7291336,15.1132812 L74.7291336,14.0585938 L72.0924149,14.0585938 L72.0924149,25.4726562 L74.7291336,25.4726562 Z M95.9869461,25.8007812 C97.2369461,25.8007812 98.4049149,25.2929688 99.4908524,24.2773438 L99.4908524,24.2773438 L99.4908524,25.4726562 L102.13929,25.4726562 L102.13929,14.0585938 L99.4908524,14.0585938 L99.4908524,15.3828125 C98.4361649,14.2890625 97.2447586,13.7421875 95.9166336,13.7421875 C94.3775711,13.7421875 93.0963211,14.3125 92.0728836,15.453125 C91.0494461,16.59375 90.5377274,18.0195312 90.5377274,19.7304688 C90.5377274,21.4726562 91.0494461,22.9257812 92.0728836,24.0898438 C93.1041336,25.2304688 94.4088211,25.8007812 95.9869461,25.8007812 Z M96.3853836,23.4453125 C95.4713211,23.4453125 94.7135086,23.0976562 94.1119461,22.4023438 C93.5260086,21.7148438 93.2330399,20.8242188 93.2330399,19.7304688 C93.2330399,18.7070312 93.5338211,17.8476562 94.1353836,17.1523438 C94.7447586,16.4648438 95.5025711,16.1210938 96.4088211,16.1210938 C97.3697586,16.1210938 98.1510086,16.4609375 98.7525711,17.140625 C99.3541336,17.8359375 99.6549149,18.71875 99.6549149,19.7890625 C99.6549149,20.859375 99.3541336,21.7421875 98.7525711,22.4375 C98.1510086,23.109375 97.3619461,23.4453125 96.3853836,23.4453125 Z M108.115852,25.4726562 L108.115852,19.9648438 C108.115852,18.5429688 108.29554,17.546875 108.654915,16.9765625 C109.022102,16.3984375 109.643196,16.109375 110.518196,16.109375 C111.322884,16.109375 111.877571,16.328125 112.182259,16.765625 C112.494759,17.1953125 112.651009,17.9726562 112.651009,19.0976562 L112.651009,19.0976562 L112.651009,25.4726562 L115.299446,25.4726562 L115.299446,18.4765625 C115.299446,16.8671875 114.979134,15.7070312 114.338509,14.9960938 C113.596321,14.1601562 112.561165,13.7421875 111.23304,13.7421875 C110.07679,13.7421875 109.037727,14.1992188 108.115852,15.1132812 L108.115852,15.1132812 L108.115852,14.0585938 L105.467415,14.0585938 L105.467415,25.4726562 L108.115852,25.4726562 Z M124.123665,25.8007812 C125.850227,25.8007812 127.307259,25.2265625 128.494759,24.078125 C129.674446,22.921875 130.26429,21.4882812 130.26429,19.7773438 C130.26429,18.0820312 129.678352,16.6523438 128.506477,15.4882812 C127.318977,14.3242188 125.873665,13.7421875 124.17054,13.7421875 C122.475227,13.7421875 121.037727,14.3203125 119.85804,15.4765625 C118.678352,16.6328125 118.088509,18.0351562 118.088509,19.6835938 C118.088509,21.4335938 118.666634,22.8867188 119.822884,24.0429688 C120.979134,25.2148438 122.412727,25.8007812 124.123665,25.8007812 Z M124.17054,23.4453125 C123.147102,23.4453125 122.322884,23.109375 121.697884,22.4375 C121.088509,21.7734375 120.783821,20.8710938 120.783821,19.7304688 C120.783821,18.6679688 121.096321,17.8007812 121.721321,17.1289062 C122.346321,16.4570312 123.162727,16.1210938 124.17054,16.1210938 C125.193977,16.1210938 126.018196,16.4570312 126.643196,17.1289062 C127.260384,17.7929688 127.568977,18.6796875 127.568977,19.7890625 C127.568977,20.8984375 127.260384,21.7851562 126.643196,22.4492188 C126.026009,23.1132812 125.20179,23.4453125 124.17054,23.4453125 Z M137.401009,26.2578125 L143.330696,14.0585938 L140.365852,14.0585938 L137.424446,20.46875 L134.471321,14.0585938 L131.518196,14.0585938 L137.401009,26.2578125 Z M150.022102,25.8007812 C151.272102,25.8007812 152.440071,25.2929688 153.526009,24.2773438 L153.526009,24.2773438 L153.526009,25.4726562 L156.174446,25.4726562 L156.174446,14.0585938 L153.526009,14.0585938 L153.526009,15.3828125 C152.471321,14.2890625 151.279915,13.7421875 149.95179,13.7421875 C148.412727,13.7421875 147.131477,14.3125 146.10804,15.453125 C145.084602,16.59375 144.572884,18.0195312 144.572884,19.7304688 C144.572884,21.4726562 145.084602,22.9257812 146.10804,24.0898438 C147.13929,25.2304688 148.443977,25.8007812 150.022102,25.8007812 Z M150.42054,23.4453125 C149.506477,23.4453125 148.748665,23.0976562 148.147102,22.4023438 C147.561165,21.7148438 147.268196,20.8242188 147.268196,19.7304688 C147.268196,18.7070312 147.568977,17.8476562 148.17054,17.1523438 C148.779915,16.4648438 149.537727,16.1210938 150.443977,16.1210938 C151.404915,16.1210938 152.186165,16.4609375 152.787727,17.140625 C153.38929,17.8359375 153.690071,18.71875 153.690071,19.7890625 C153.690071,20.859375 153.38929,21.7421875 152.787727,22.4375 C152.186165,23.109375 151.397102,23.4453125 150.42054,23.4453125 Z" id="nomanova" fill="#FFFFFF" fill-rule="nonzero"></path>
                <circle id="Oval" stroke="#FFFFFF" stroke-width="3.2" cx="20" cy="20" r="18.4"></circle>
                <polygon id="N" fill="#FFFFFF" fill-rule="nonzero" points="12.6338833 25.580786 12.6338833 18.1945229 18.4339424 25.580786 21.5582836 25.580786 21.5582836 13.5 18.4339424 13.5 18.4339424 20.886263 12.6338833 13.5 9.49351988 13.5 9.49351988 25.580786"></polygon>
                <polygon id="N" fill="#FFFFFF" fill-rule="nonzero" points="21.5820799 25.580786 21.5820799 18.1945229 27.3821389 25.580786 30.5064801 25.580786 30.5064801 13.5 27.3821389 13.5 27.3821389 20.886263 21.5820799 13.5 18.4417164 13.5 18.4417164 25.580786"></polygon>
            </g>
        </g>
    </g>
</svg>